<?xml version="1.0" encoding="iso-8859-1"?>
<!-- Generator: Adobe Illustrator 19.0.0, SVG Export Plug-In . SVG Version: 6.00 Build 0)  -->
<svg version="1.1" id="Capa_1" xmlns="http://www.w3.org/2000/svg"  x="0px" y="0px"
	 viewBox="0 0 512 512" style="enable-background:new 0 0 512 512;" xml:space="preserve">
<path style="fill:#E0E0E2;" d="M511.509,121.424v381.843c0,4.826-3.917,8.733-8.743,8.733H9.234c-4.826,0-8.743-3.907-8.743-8.733
	V121.424c0-4.826,3.917-8.733,8.743-8.733h493.532C507.592,112.691,511.509,116.598,511.509,121.424z"/>
<path style="fill:#C6C5CA;" d="M511.509,202.688v300.579c0,4.826-3.917,8.733-8.743,8.733H9.234c-4.826,0-8.743-3.907-8.743-8.733
	V202.801h1.013l22.54,11.844c12.174,6.396,26.922,5.363,38.094-2.666l2.987-2.139c12.671-9.115,29.744-9.115,42.404,0h0.01
	c12.671,9.105,29.744,9.105,42.404,0h0.01c6.335-4.558,13.776-6.831,21.207-6.831c7.431,0,14.872,2.274,21.207,6.831
	c12.671,9.105,29.733,9.105,42.404,0h0.01c12.66-9.115,29.733-9.115,42.404,0h0.01c12.671,9.105,29.733,9.105,42.404,0l0.01-0.01
	c12.671-9.106,29.733-9.106,42.404,0l0.01,0.01c12.671,9.105,29.744,9.105,42.414,0l0.01-0.01c12.671-9.106,29.733-9.106,42.404,0
	l2.997,2.16c11.172,8.02,25.91,9.053,38.094,2.656l22.551-11.844L511.509,202.688z"/>
<path style="fill:#787680;" d="M440.757,0h-2.284c-8.082,0-14.707,6.614-14.707,14.707v79.858h-95.081V14.707
	c0-7.782-6.118-14.19-13.776-14.676C314.599,0.01,314.289,0,313.979,0h-2.274c-8.092,0-14.707,6.614-14.707,14.707V305.84
	c0,8.092,6.614,14.707,14.707,14.707h2.274c8.092,0,14.707-6.614,14.707-14.707v-83.816h95.081v83.816
	c0,8.092,6.625,14.707,14.707,14.707h2.284c8.092,0,14.707-6.614,14.707-14.707V14.707C455.463,6.614,448.849,0,440.757,0z
	 M328.685,130.56h95.081v55.467h-95.081V130.56z"/>
<path style="fill:#C70024;" d="M266.686,242.694c0,10.986-4.496,20.98-11.74,28.214c-7.245,7.245-17.239,11.74-28.225,11.74H72.391
	c-21.982,0-39.965-17.983-39.965-39.955c0-7.048,1.85-13.673,5.074-19.43c1.819-3.235,4.062-6.191,6.666-8.795
	c3.369-3.37,7.327-6.149,11.709-8.145c5.043-2.314,10.635-3.596,16.515-3.596h154.331c0.217,0,0.444,0,0.661,0.01
	c18.065,0.289,33.32,12.733,37.898,29.465C266.201,235.552,266.686,239.066,266.686,242.694z"/>
<path style="fill:#FF0C38;" d="M265.281,232.204c-5.033,2.305-10.635,3.597-16.515,3.597H94.435
	c-18.355,0-33.929-12.536-38.559-29.476c5.043-2.314,10.635-3.596,16.515-3.596h154.331c0.217,0,0.444,0,0.661,0.01
	C245.448,203.029,260.702,215.472,265.281,232.204z"/>
<g>
	<path style="fill:#6DC82A;" d="M86.167,206.522c0,15.027-12.185,27.212-27.222,27.212c-8.712,0-16.474-4.093-21.445-10.469
		c1.819-3.235,4.062-6.191,6.666-8.795c7.245-7.246,17.228-11.74,28.225-11.74h13.508C86.074,203.969,86.167,205.23,86.167,206.522z
		"/>
	<path style="fill:#6DC82A;" d="M227.403,203.762c0,15.037-12.185,27.222-27.212,27.222S172.98,218.8,172.98,203.762
		c0-0.341,0.01-0.692,0.021-1.033h53.721c0.217,0,0.444,0,0.661,0.01C227.393,203.08,227.403,203.421,227.403,203.762z"/>
	<circle style="fill:#6DC82A;" cx="128.194" cy="232.359" r="11.713"/>
</g>
<path style="fill:#5AAAE7;" d="M511.509,247.128v256.14c0,4.826-3.917,8.733-8.743,8.733H9.234c-4.826,0-8.743-3.907-8.743-8.733
	V247.241h1.013l22.54,11.844c12.174,6.396,26.922,5.363,38.094-2.666l2.987-2.139c12.671-9.115,29.744-9.115,42.404,0h0.01
	c12.671,9.105,29.744,9.105,42.404,0h0.01c6.335-4.558,13.776-6.831,21.207-6.831c7.431,0,14.872,2.274,21.207,6.831
	c12.671,9.105,29.733,9.105,42.404,0h0.01c12.66-9.115,29.733-9.115,42.404,0h0.01c12.671,9.105,29.733,9.105,42.404,0l0.01-0.01
	c12.671-9.106,29.733-9.106,42.404,0l0.01,0.01c12.671,9.105,29.744,9.105,42.414,0l0.01-0.01c12.671-9.106,29.733-9.106,42.404,0
	l2.997,2.16c11.172,8.02,25.91,9.053,38.094,2.656l22.551-11.844L511.509,247.128z"/>
<path style="fill:#78B9EB;" d="M511.509,288.467v214.8c0,4.826-3.917,8.733-8.743,8.733H9.234c-4.826,0-8.743-3.907-8.743-8.733
	V288.581h1.013l22.54,11.844c12.174,6.396,26.922,5.363,38.094-2.666l2.987-2.139c12.671-9.115,29.744-9.115,42.404,0h0.01
	c12.671,9.105,29.744,9.105,42.404,0h0.01c6.335-4.558,13.776-6.831,21.207-6.831c7.431,0,14.872,2.274,21.207,6.831
	c12.671,9.105,29.733,9.105,42.404,0h0.01c12.66-9.115,29.733-9.115,42.404,0h0.01c12.671,9.105,29.733,9.105,42.404,0l0.01-0.01
	c12.671-9.106,29.733-9.106,42.404,0l0.01,0.01c12.671,9.105,29.744,9.105,42.414,0l0.01-0.01c12.671-9.106,29.733-9.106,42.404,0
	l2.997,2.16c11.172,8.02,25.91,9.053,38.094,2.656l22.551-11.844L511.509,288.467z"/>
<g>
	<path style="fill:#3D9AE2;" d="M371.479,390.752c-1.287-0.113-2.59-0.171-3.881-0.171c-9.288,0-18.185,2.867-25.731,8.292
		c-4.889,3.515-10.657,5.373-16.68,5.373c-6.022,0-11.791-1.859-16.682-5.374c-7.542-5.424-16.444-8.29-25.744-8.29
		c-6.067,0-11.967,1.225-17.427,3.583c-4.517,1.952-6.094,7.57-3.259,11.592v0.001c2.085,2.956,5.967,4.147,9.282,2.698
		c3.572-1.563,7.433-2.372,11.404-2.372c6.031,0,11.804,1.858,16.694,5.373c7.543,5.424,16.441,8.291,25.731,8.291
		c9.291,0,18.188-2.867,25.731-8.29c4.892-3.516,10.659-5.375,16.681-5.375c0.928,0,1.868,0.045,2.79,0.136
		c4.543,0.433,8.554-3.129,8.506-7.827C378.852,394.341,375.517,391.107,371.479,390.752z"/>
	<path style="fill:#3D9AE2;" d="M478.14,398.855c-7.538-5.412-16.428-8.274-25.708-8.274c-9.289,0-18.186,2.866-25.738,8.295
		c-4.889,3.515-10.657,5.373-16.679,5.373c-2.828,0-5.629-0.417-8.329-1.238c-4.096-1.252-8.426,1.061-9.672,5.157
		c-1.246,4.096,1.062,8.426,5.157,9.672c4.164,1.268,8.485,1.911,12.844,1.911c9.289,0,18.186-2.866,25.738-8.295
		c4.889-3.515,10.657-5.373,16.679-5.373c6.021,0,11.789,1.858,16.678,5.373c0.033,0.023,0.076,0.055,0.11,0.078
		c3.514,2.443,8.339,1.572,10.784-1.941C482.43,406.105,481.588,401.317,478.14,398.855z"/>
	<path style="fill:#3D9AE2;" d="M284.093,470.057c-3.592,1.58-7.479,2.4-11.479,2.4c-6.022,0-11.79-1.858-16.68-5.373
		c-0.019-0.013-0.038-0.027-0.058-0.04c-7.531-5.4-16.41-8.252-25.679-8.252c-9.29,0-18.186,2.866-25.648,8.232
		c-0.027,0.02-0.064,0.044-0.09,0.064c-4.889,3.515-10.657,5.373-16.678,5.373c-6.005,0-11.757-1.848-16.638-5.343
		c-3.421-2.505-8.222-1.789-10.772,1.61c-2.568,3.424-1.869,8.288,1.556,10.856c0.042,0.031,0.085,0.063,0.127,0.093
		c7.542,5.422,16.439,8.288,25.728,8.288c9.289,0,18.185-2.866,25.648-8.232c0.027-0.02,0.064-0.045,0.09-0.064
		c4.888-3.515,10.656-5.373,16.678-5.373c6.022,0,11.79,1.858,16.679,5.373c0.02,0.014,0.039,0.028,0.06,0.042
		c7.532,5.399,16.409,8.25,25.677,8.25c6.098,0,12.027-1.235,17.513-3.617c4.534-1.968,6.089-7.629,3.204-11.642
		C291.236,469.785,287.379,468.612,284.093,470.057z"/>
	<path style="fill:#3D9AE2;" d="M183.868,370.117c0.033,0.023,0.076,0.055,0.11,0.078c3.514,2.444,8.339,1.572,10.784-1.941
		c2.426-3.487,1.584-8.275-1.862-10.737c-7.538-5.414-16.428-8.276-25.71-8.276c-9.289,0-18.186,2.866-25.738,8.295
		c-4.889,3.515-10.657,5.373-16.679,5.373s-11.789-1.858-16.679-5.373c-0.02-0.013-0.038-0.027-0.058-0.041
		c-7.531-5.4-16.409-8.252-25.679-8.252c-9.288,0-18.185,2.867-25.73,8.291c-3.476,2.499-4.267,7.342-1.768,10.818
		c2.499,3.477,7.342,4.268,10.819,1.769c4.891-3.516,10.659-5.375,16.68-5.375c6.023,0,11.791,1.858,16.679,5.373
		c0.02,0.014,0.039,0.028,0.06,0.042c7.532,5.399,16.409,8.251,25.677,8.251c9.289,0,18.186-2.866,25.738-8.295
		c4.889-3.515,10.657-5.373,16.679-5.373C173.21,364.744,178.977,366.602,183.868,370.117z"/>
	<path style="fill:#3D9AE2;" d="M377.605,319.083c-4.888,3.515-10.657,5.373-16.679,5.373s-11.791-1.858-16.687-5.378
		c-7.542-5.422-16.439-8.289-25.729-8.289s-18.186,2.866-25.648,8.232c-0.027,0.02-0.063,0.044-0.089,0.064
		c-4.89,3.515-10.661,5.373-16.688,5.373c-6.015,0-11.78-1.858-16.67-5.373c-0.073-0.054-0.161-0.113-0.237-0.163
		c-3.561-2.373-8.367-1.409-10.743,2.154c-2.331,3.496-1.441,8.201,1.959,10.618c7.536,5.408,16.419,8.267,25.689,8.267
		c9.294,0,18.194-2.866,25.657-8.232c0.027-0.02,0.064-0.046,0.09-0.064c4.888-3.515,10.656-5.373,16.678-5.373
		s11.79,1.858,16.687,5.378c7.542,5.422,16.439,8.289,25.73,8.289s18.188-2.867,25.731-8.291c3.476-2.499,4.266-7.342,1.766-10.818
		C385.925,317.375,381.08,316.583,377.605,319.083z"/>
</g>
<path style="fill:#898890;" d="M440.757,0h-2.284c-8.082,0-14.707,6.614-14.707,14.707v79.858h-95.081V14.707
	c0-7.782-6.118-14.19-13.776-14.676v188.58c0,8.557,6.945,15.502,15.502,15.502h125.052V14.707C455.463,6.614,448.849,0,440.757,0z
	 M423.766,186.028h-95.081V130.56h95.081V186.028z"/>
<g>
</g>
<g>
</g>
<g>
</g>
<g>
</g>
<g>
</g>
<g>
</g>
<g>
</g>
<g>
</g>
<g>
</g>
<g>
</g>
<g>
</g>
<g>
</g>
<g>
</g>
<g>
</g>
<g>
</g>
</svg>
